<svg xmlns="http://www.w3.org/2000/svg" viewBox="0 0 240 240" role="img" aria-label="Alongamento dos punhos"><rect width="240" height="240" rx="38" fill="#fff7d7"/><circle cx="188" cy="48" r="18" fill="#dce8ff"/><circle cx="45" cy="188" r="25" fill="#e7f5eb"/><path d="M92 64c0-18 12-31 28-31s28 13 28 31-12 31-28 31-28-13-28-31z" fill="#9c6b4d"/><path d="M94 59c4-20 19-29 38-24 10 3 17 12 19 24-16-7-39-6-57 0z" fill="#2f1f18"/><path d="M86 93c20-11 45-9 60 6" fill="none" stroke="#3155b7" stroke-width="24" stroke-linecap="round"/><path d="M91 108l-35 5m83-7 31-20" fill="none" stroke="#9c6b4d" stroke-width="15" stroke-linecap="round"/><path d="M105 108l-9 55m35-55 10 55" fill="none" stroke="#3155b7" stroke-width="17" stroke-linecap="round"/><path d="M96 163l-7 47m52-47 7 47" fill="none" stroke="#263f8f" stroke-width="16" stroke-linecap="round"/><ellipse cx="120" cy="220" rx="72" ry="8" fill="#263f8f" opacity=".1"/></svg>